<svg width="168" height="29" viewBox="0 0 168 29" fill="none" xmlns="http://www.w3.org/2000/svg">
<mask id="mask0_345_68" style="mask-type:alpha" maskUnits="userSpaceOnUse" x="0" y="0" width="29" height="29">
<path fill-rule="evenodd" clip-rule="evenodd" d="M0 0H28.8041V29H0V0Z" fill="white"/>
</mask>
<g mask="url(#mask0_345_68)">
<rect width="28.8041" height="29" rx="3" fill="#734EE1"/>
<path fill-rule="evenodd" clip-rule="evenodd" d="M4.65955 8.22388H9.74263V3.02985H4.65955V8.22388Z" fill="white"/>
<path fill-rule="evenodd" clip-rule="evenodd" d="M11.8605 10.388H16.9436V5.19397H11.8605V10.388Z" fill="white"/>
<path fill-rule="evenodd" clip-rule="evenodd" d="M6.77747 15.5821H11.8605V10.3881H6.77747V15.5821Z" fill="white"/>
<path fill-rule="evenodd" clip-rule="evenodd" d="M16.9436 20.7761H22.0267V15.5821H16.9436V20.7761Z" fill="white"/>
<path fill-rule="evenodd" clip-rule="evenodd" d="M16.9436 10.388H22.0267V5.19397H16.9436V10.388Z" fill="white"/>
<path fill-rule="evenodd" clip-rule="evenodd" d="M11.8605 20.7761H16.9436V15.5821H11.8605V20.7761Z" fill="white"/>
<path fill-rule="evenodd" clip-rule="evenodd" d="M6.77747 25.9702H11.8605V20.7762H6.77747V25.9702Z" fill="white"/>
<path fill-rule="evenodd" clip-rule="evenodd" d="M16.9436 15.5821H22.0267V10.3881H16.9436V15.5821Z" fill="white"/>
<path fill-rule="evenodd" clip-rule="evenodd" d="M6.77747 20.7761H11.8605V15.5821H6.77747V20.7761Z" fill="white"/>
</g>
<path fill-rule="evenodd" clip-rule="evenodd" d="M168 21.0039V25.224H150.657V2.49962H167.585V6.71971H155.809V11.6548H166.208V15.7452H155.809V21.0039H168ZM131.147 2.49962H136.281V20.9385H147.405V25.224H131.147V2.49962ZM117.046 14.6932C118.642 14.6932 119.855 14.3341 120.686 13.6157C121.517 12.8974 121.933 11.8765 121.933 10.554C121.933 9.20721 121.517 8.1763 120.686 7.45687C119.855 6.73856 118.642 6.37941 117.046 6.37941H112.719V14.6932H117.046ZM117.58 2.49962C119.574 2.49962 121.304 2.8355 122.771 3.50614C124.24 4.17679 125.37 5.129 126.163 6.36277C126.955 7.59653 127.353 9.05755 127.353 10.7458C127.353 12.4119 126.955 13.8674 126.163 15.1122C125.37 16.356 124.24 17.3093 122.771 17.9688C121.304 18.6284 119.574 18.9587 117.58 18.9587H113.048V25.224H107.842V2.49962H117.58ZM98.6282 10.5363C98.6282 9.19612 98.212 8.16854 97.3816 7.45244C96.5503 6.73745 95.3373 6.37941 93.7417 6.37941H89.4146V14.6932H93.7417C95.3373 14.6932 96.5503 14.3296 97.3816 13.6035C98.212 12.8764 98.6282 11.8543 98.6282 10.5363ZM98.0298 25.224L93.7807 18.8944H89.0926V25.224H83.9947V2.49962H93.5292C95.4803 2.49962 97.1745 2.8355 98.6119 3.50614C100.049 4.17679 101.156 5.129 101.932 6.36277C102.708 7.59653 103.096 9.05755 103.096 10.7458C103.096 12.4341 102.703 13.8895 101.916 15.1122C101.129 16.3349 100.012 17.2705 98.5642 17.9201L103.506 25.224H98.0298ZM69.0892 25.7783C65.9263 25.7783 63.4646 24.8737 61.7043 23.0646C59.9439 21.2556 59.0627 18.6727 59.0627 15.3162V2.49962H64.1876V15.12C64.1876 19.2181 65.832 21.2666 69.1207 21.2666C70.7238 21.2666 71.9465 20.7711 72.7898 19.779C73.6332 18.7869 74.0559 17.2339 74.0559 15.12V2.49962H79.1169V15.3162C79.1169 18.6727 78.2356 21.2556 76.4753 23.0646C74.7139 24.8737 72.2522 25.7783 69.0892 25.7783ZM45.5062 14.6932C47.1018 14.6932 48.3147 14.3341 49.1461 13.6157C49.9764 12.8974 50.3916 11.8765 50.3916 10.554C50.3916 9.20721 49.9764 8.1763 49.1461 7.45687C48.3147 6.73856 47.1018 6.37941 45.5062 6.37941H41.1779V14.6932H45.5062ZM45.4973 2.49957C47.4906 2.49957 49.2206 2.83545 50.6883 3.5061C52.1571 4.17674 53.2865 5.12895 54.08 6.36272C54.8724 7.59649 55.2691 9.0575 55.2691 10.7458C55.2691 12.4118 54.8724 13.8673 54.08 15.1122C53.2865 16.3559 52.1571 17.3092 50.6883 17.9688C49.2206 18.6283 47.4906 18.9587 45.4973 18.9587H40.9652V25.224H35.7579V2.49957H45.4973Z" fill="#734EE1"/>
</svg>
